STARTFONT 2.1
FONT -B&H-Lucida Bright-DemiBold-I-Normal--12-120-72-72-P-73-ISO8859-1
SIZE 12 72 72
FONTBOUNDINGBOX 22 15 -7 -3

STARTPROPERTIES 22
FONTNAME_REGISTRY "-"
FOUNDRY "B&H"
FAMILY_NAME "Lucida Bright"
WEIGHT_NAME "DemiBold"
SLANT "I"
SETWIDTH_NAME "Normal"
ADD_STYLE_NAME ""
PIXEL_SIZE 12
POINT_SIZE 120
RESOLUTION_X 72
RESOLUTION_Y 72
SPACING "P"
CHARSET_REGISTRY "ISO8859"
CHARSET_ENCODING "1"
FULL_NAME "LucidaBright-DemiItalic"
AVERAGE_WIDTH 73
WEIGHT 10
X_HEIGHT 6
QUAD_WIDTH 7
DEFAULT_CHAR 32
FONT_DESCENT 3
FONT_ASCENT 12
ENDPROPERTIES

CHARS 190

STARTCHAR space
ENCODING 32
SWIDTH 333 0
DWIDTH 4 0
BBX 1 1 0 0
BITMAP
00
ENDCHAR

STARTCHAR exclam
ENCODING 33
SWIDTH 265 0
DWIDTH 3 0
BBX 3 9 1 0
BITMAP
20
60
60
60
40
40
40
C0
C0
ENDCHAR

STARTCHAR quotedbl
ENCODING 34
SWIDTH 451 0
DWIDTH 5 0
BBX 4 3 2 6
BITMAP
D0
90
90
ENDCHAR

STARTCHAR numbersign
ENCODING 35
SWIDTH 636 0
DWIDTH 8 0
BBX 8 9 1 0
BITMAP
12
12
12
7F
24
24
FE
48
48
ENDCHAR

STARTCHAR dollar
ENCODING 36
SWIDTH 636 0
DWIDTH 8 0
BBX 7 11 2 -1
BITMAP
08
3E
54
50
30
10
18
2C
A8
F8
20
ENDCHAR

STARTCHAR percent
ENCODING 37
SWIDTH 772 0
DWIDTH 9 0
BBX 9 9 1 0
BITMAP
7180
9100
9200
9400
FB80
1480
2480
6480
C700
ENDCHAR

STARTCHAR ampersand
ENCODING 38
SWIDTH 773 0
DWIDTH 9 0
BBX 9 9 1 0
BITMAP
1C00
3600
2600
1C00
3800
7B80
CF00
CE00
7F00
ENDCHAR

STARTCHAR quoteright
ENCODING 39
SWIDTH 265 0
DWIDTH 3 0
BBX 3 4 2 5
BITMAP
60
C0
40
C0
ENDCHAR

STARTCHAR parenleft
ENCODING 40
SWIDTH 336 0
DWIDTH 4 0
BBX 5 11 1 -2
BITMAP
08
30
60
40
C0
C0
C0
C0
C0
40
40
ENDCHAR

STARTCHAR parenright
ENCODING 41
SWIDTH 336 0
DWIDTH 4 0
BBX 4 11 0 -2
BITMAP
20
10
10
10
10
10
30
30
20
40
80
ENDCHAR

STARTCHAR asterisk
ENCODING 42
SWIDTH 434 0
DWIDTH 5 0
BBX 5 5 2 4
BITMAP
A0
68
F8
60
D0
ENDCHAR

STARTCHAR plus
ENCODING 43
SWIDTH 636 0
DWIDTH 8 0
BBX 7 7 1 0
BITMAP
08
10
10
FE
10
10
20
ENDCHAR

STARTCHAR comma
ENCODING 44
SWIDTH 265 0
DWIDTH 3 0
BBX 3 4 0 -3
BITMAP
E0
40
C0
80
ENDCHAR

STARTCHAR minus
ENCODING 45
SWIDTH 636 0
DWIDTH 8 0
BBX 7 1 1 3
BITMAP
FE
ENDCHAR

STARTCHAR period
ENCODING 46
SWIDTH 265 0
DWIDTH 3 0
BBX 2 2 1 0
BITMAP
C0
C0
ENDCHAR

STARTCHAR slash
ENCODING 47
SWIDTH 515 0
DWIDTH 6 0
BBX 8 11 0 -2
BITMAP
01
02
06
04
08
18
10
20
20
40
80
ENDCHAR

STARTCHAR zero
ENCODING 48
SWIDTH 623 0
DWIDTH 7 0
BBX 7 9 1 0
BITMAP
1C
26
66
C6
C6
C6
CC
CC
70
ENDCHAR

STARTCHAR one
ENCODING 49
SWIDTH 636 0
DWIDTH 8 0
BBX 5 9 2 0
BITMAP
38
18
18
10
30
30
30
20
F8
ENDCHAR

STARTCHAR two
ENCODING 50
SWIDTH 636 0
DWIDTH 8 0
BBX 7 9 1 0
BITMAP
3C
26
26
06
18
30
40
7C
FC
ENDCHAR

STARTCHAR three
ENCODING 51
SWIDTH 636 0
DWIDTH 8 0
BBX 7 9 1 0
BITMAP
3C
66
04
0C
38
0C
0C
8C
F8
ENDCHAR

STARTCHAR four
ENCODING 52
SWIDTH 636 0
DWIDTH 8 0
BBX 7 9 1 0
BITMAP
06
0C
14
24
6C
CC
FE
08
3C
ENDCHAR

STARTCHAR five
ENCODING 53
SWIDTH 636 0
DWIDTH 8 0
BBX 7 9 1 0
BITMAP
3E
7C
40
40
78
0C
8C
8C
F0
ENDCHAR

STARTCHAR six
ENCODING 54
SWIDTH 636 0
DWIDTH 8 0
BBX 7 9 1 0
BITMAP
1E
32
62
C0
FC
C4
C4
CC
78
ENDCHAR

STARTCHAR seven
ENCODING 55
SWIDTH 636 0
DWIDTH 8 0
BBX 7 9 2 0
BITMAP
7E
FC
04
08
10
20
60
C0
C0
ENDCHAR

STARTCHAR eight
ENCODING 56
SWIDTH 636 0
DWIDTH 8 0
BBX 7 9 1 0
BITMAP
1C
26
66
34
3C
4E
C6
C4
78
ENDCHAR

STARTCHAR nine
ENCODING 57
SWIDTH 636 0
DWIDTH 8 0
BBX 7 9 1 0
BITMAP
3C
66
46
46
66
7E
0C
88
F0
ENDCHAR

STARTCHAR colon
ENCODING 58
SWIDTH 265 0
DWIDTH 3 0
BBX 3 6 1 0
BITMAP
60
60
00
00
C0
C0
ENDCHAR

STARTCHAR semicolon
ENCODING 59
SWIDTH 265 0
DWIDTH 3 0
BBX 3 9 0 -3
BITMAP
20
60
00
00
40
C0
40
C0
80
ENDCHAR

STARTCHAR less
ENCODING 60
SWIDTH 636 0
DWIDTH 8 0
BBX 8 6 1 0
BITMAP
03
1C
F0
60
18
04
ENDCHAR

STARTCHAR equal
ENCODING 61
SWIDTH 636 0
DWIDTH 8 0
BBX 8 3 1 2
BITMAP
FF
00
FE
ENDCHAR

STARTCHAR greater
ENCODING 62
SWIDTH 636 0
DWIDTH 8 0
BBX 8 6 0 0
BITMAP
60
38
0E
0F
30
C0
ENDCHAR

STARTCHAR question
ENCODING 63
SWIDTH 493 0
DWIDTH 6 0
BBX 5 9 2 0
BITMAP
F8
98
18
18
30
60
C0
C0
C0
ENDCHAR

STARTCHAR at
ENCODING 64
SWIDTH 861 0
DWIDTH 10 0
BBX 9 9 1 0
BITMAP
1E00
2180
4080
8E80
9680
A680
AC80
7700
3C00
ENDCHAR

STARTCHAR A
ENCODING 65
SWIDTH 765 0
DWIDTH 9 0
BBX 9 9 0 0
BITMAP
0600
0600
0E00
0B00
1300
3300
3F00
4180
C380
ENDCHAR

STARTCHAR B
ENCODING 66
SWIDTH 651 0
DWIDTH 8 0
BBX 8 9 0 0
BITMAP
3E
33
33
36
3C
26
62
66
FC
ENDCHAR

STARTCHAR C
ENCODING 67
SWIDTH 740 0
DWIDTH 9 0
BBX 8 9 1 0
BITMAP
1F
31
61
C0
C0
C0
C0
E2
7C
ENDCHAR

STARTCHAR D
ENCODING 68
SWIDTH 822 0
DWIDTH 10 0
BBX 10 9 0 0
BITMAP
3F80
3180
30C0
30C0
30C0
2080
6180
6300
FE00
ENDCHAR

STARTCHAR E
ENCODING 69
SWIDTH 630 0
DWIDTH 8 0
BBX 8 9 0 0
BITMAP
3F
31
30
32
3C
24
60
62
FE
ENDCHAR

STARTCHAR F
ENCODING 70
SWIDTH 602 0
DWIDTH 7 0
BBX 8 9 0 0
BITMAP
3F
31
30
32
3C
24
60
60
F0
ENDCHAR

STARTCHAR G
ENCODING 71
SWIDTH 780 0
DWIDTH 9 0
BBX 8 9 1 0
BITMAP
1F
31
61
C0
C0
C7
C6
E6
7E
ENDCHAR

STARTCHAR H
ENCODING 72
SWIDTH 827 0
DWIDTH 10 0
BBX 11 9 0 0
BITMAP
39E0
30C0
3080
3180
3F80
2180
6180
6300
F780
ENDCHAR

STARTCHAR I
ENCODING 73
SWIDTH 372 0
DWIDTH 4 0
BBX 5 9 0 0
BITMAP
38
30
30
30
30
20
60
60
F0
ENDCHAR

STARTCHAR J
ENCODING 74
SWIDTH 478 0
DWIDTH 6 0
BBX 7 11 0 -2
BITMAP
0E
0C
0C
0C
0C
18
18
18
18
90
E0
ENDCHAR

STARTCHAR K
ENCODING 75
SWIDTH 746 0
DWIDTH 9 0
BBX 9 9 0 0
BITMAP
3980
3100
3200
3C00
2C00
2E00
6600
6300
F780
ENDCHAR

STARTCHAR L
ENCODING 76
SWIDTH 611 0
DWIDTH 7 0
BBX 7 9 0 0
BITMAP
38
30
30
30
30
20
60
62
FE
ENDCHAR

STARTCHAR M
ENCODING 77
SWIDTH 926 0
DWIDTH 11 0
BBX 12 9 0 0
BITMAP
3070
38E0
38E0
3940
29C0
2EC0
4CC0
4CC0
E1C0
ENDCHAR

STARTCHAR N
ENCODING 78
SWIDTH 797 0
DWIDTH 10 0
BBX 10 9 0 0
BITMAP
30C0
3880
3880
2C80
2C80
2700
4700
4300
E100
ENDCHAR

STARTCHAR O
ENCODING 79
SWIDTH 831 0
DWIDTH 10 0
BBX 9 9 1 0
BITMAP
1F00
3180
6180
4180
C180
C180
C300
C600
7C00
ENDCHAR

STARTCHAR P
ENCODING 80
SWIDTH 628 0
DWIDTH 8 0
BBX 8 9 0 0
BITMAP
3F
33
33
33
36
3C
60
60
F0
ENDCHAR

STARTCHAR Q
ENCODING 81
SWIDTH 835 0
DWIDTH 10 0
BBX 10 12 1 -3
BITMAP
1F00
3180
6180
4180
C180
C180
C380
C700
7E00
0C00
0600
01C0
ENDCHAR

STARTCHAR R
ENCODING 82
SWIDTH 711 0
DWIDTH 9 0
BBX 8 9 0 0
BITMAP
3F
33
33
32
3C
2C
66
66
F3
ENDCHAR

STARTCHAR S
ENCODING 83
SWIDTH 587 0
DWIDTH 7 0
BBX 7 9 1 0
BITMAP
1E
22
62
70
38
0C
8C
8C
F8
ENDCHAR

STARTCHAR T
ENCODING 84
SWIDTH 716 0
DWIDTH 9 0
BBX 8 9 2 0
BITMAP
FF
99
18
18
10
30
30
30
78
ENDCHAR

STARTCHAR U
ENCODING 85
SWIDTH 775 0
DWIDTH 9 0
BBX 9 9 2 0
BITMAP
F380
6100
6100
4200
C200
C200
C200
C400
7800
ENDCHAR

STARTCHAR V
ENCODING 86
SWIDTH 741 0
DWIDTH 9 0
BBX 9 9 2 0
BITMAP
E180
6100
6100
6200
6400
3400
3800
3800
3000
ENDCHAR

STARTCHAR W
ENCODING 87
SWIDTH 922 0
DWIDTH 11 0
BBX 11 9 2 0
BITMAP
E460
4620
4E40
4E40
7E80
7680
7700
6700
6600
ENDCHAR

STARTCHAR X
ENCODING 88
SWIDTH 672 0
DWIDTH 8 0
BBX 9 9 0 0
BITMAP
3980
1900
1B00
0E00
0C00
1600
2600
4600
C700
ENDCHAR

STARTCHAR Y
ENCODING 89
SWIDTH 669 0
DWIDTH 8 0
BBX 8 9 2 0
BITMAP
E3
62
64
3C
38
30
30
30
F8
ENDCHAR

STARTCHAR Z
ENCODING 90
SWIDTH 684 0
DWIDTH 8 0
BBX 8 9 1 0
BITMAP
3F
27
0E
0C
18
30
70
E2
FE
ENDCHAR

STARTCHAR bracketleft
ENCODING 91
SWIDTH 336 0
DWIDTH 4 0
BBX 5 11 0 -2
BITMAP
38
20
20
60
60
60
40
40
C0
C0
E0
ENDCHAR

STARTCHAR backslash
ENCODING 92
SWIDTH 515 0
DWIDTH 6 0
BBX 4 11 2 -2
BITMAP
80
80
40
40
40
40
20
20
20
20
10
ENDCHAR

STARTCHAR bracketright
ENCODING 93
SWIDTH 336 0
DWIDTH 4 0
BBX 5 11 0 -2
BITMAP
38
18
10
10
10
30
30
20
20
60
E0
ENDCHAR

STARTCHAR asciicircum
ENCODING 94
SWIDTH 636 0
DWIDTH 8 0
BBX 7 7 1 2
BITMAP
08
08
14
34
24
46
82
ENDCHAR

STARTCHAR underscore
ENCODING 95
SWIDTH 500 0
DWIDTH 6 0
BBX 5 1 0 0
BITMAP
F8
ENDCHAR

STARTCHAR quoteleft
ENCODING 96
SWIDTH 265 0
DWIDTH 3 0
BBX 3 4 2 5
BITMAP
60
40
C0
C0
ENDCHAR

STARTCHAR a
ENCODING 97
SWIDTH 634 0
DWIDTH 8 0
BBX 7 6 1 0
BITMAP
1E
66
44
CC
DC
EE
ENDCHAR

STARTCHAR b
ENCODING 98
SWIDTH 633 0
DWIDTH 8 0
BBX 7 9 1 0
BITMAP
70
20
60
6E
76
66
44
CC
F0
ENDCHAR

STARTCHAR c
ENCODING 99
SWIDTH 524 0
DWIDTH 6 0
BBX 6 6 1 0
BITMAP
3C
64
C4
C0
C0
78
ENDCHAR

STARTCHAR d
ENCODING 100
SWIDTH 634 0
DWIDTH 8 0
BBX 8 9 1 0
BITMAP
07
02
06
1E
66
44
CC
DC
EE
ENDCHAR

STARTCHAR e
ENCODING 101
SWIDTH 548 0
DWIDTH 7 0
BBX 6 6 1 0
BITMAP
3C
6C
C8
F0
C4
78
ENDCHAR

STARTCHAR f
ENCODING 102
SWIDTH 415 0
DWIDTH 5 0
BBX 7 12 1 -3
BITMAP
1E
34
30
78
20
60
60
60
40
40
C0
C0
ENDCHAR

STARTCHAR g
ENCODING 103
SWIDTH 628 0
DWIDTH 8 0
BBX 7 9 0 -3
BITMAP
1E
22
66
4E
D4
6C
0C
8C
F0
ENDCHAR

STARTCHAR h
ENCODING 104
SWIDTH 656 0
DWIDTH 8 0
BBX 7 9 1 0
BITMAP
70
20
60
6E
76
66
64
CC
CE
ENDCHAR

STARTCHAR i
ENCODING 105
SWIDTH 319 0
DWIDTH 4 0
BBX 4 9 1 0
BITMAP
30
60
00
E0
60
40
40
C0
E0
ENDCHAR

STARTCHAR j
ENCODING 106
SWIDTH 381 0
DWIDTH 5 0
BBX 7 12 0 -3
BITMAP
06
0C
00
1C
0C
08
08
18
18
18
90
E0
ENDCHAR

STARTCHAR k
ENCODING 107
SWIDTH 626 0
DWIDTH 8 0
BBX 7 9 1 0
BITMAP
70
20
60
66
6C
68
78
DC
CE
ENDCHAR

STARTCHAR l
ENCODING 108
SWIDTH 319 0
DWIDTH 4 0
BBX 4 9 1 0
BITMAP
70
60
60
60
60
60
60
C0
E0
ENDCHAR

STARTCHAR m
ENCODING 109
SWIDTH 969 0
DWIDTH 12 0
BBX 11 6 1 0
BITMAP
ECC0
7FE0
7740
6640
CCC0
CCE0
ENDCHAR

STARTCHAR n
ENCODING 110
SWIDTH 656 0
DWIDTH 8 0
BBX 7 6 1 0
BITMAP
EE
76
66
64
CC
CE
ENDCHAR

STARTCHAR o
ENCODING 111
SWIDTH 599 0
DWIDTH 7 0
BBX 7 6 1 0
BITMAP
3C
66
C6
C4
CC
70
ENDCHAR

STARTCHAR p
ENCODING 112
SWIDTH 639 0
DWIDTH 8 0
BBX 7 9 1 -3
BITMAP
6E
7A
72
66
44
78
C0
C0
C0
ENDCHAR

STARTCHAR q
ENCODING 113
SWIDTH 630 0
DWIDTH 8 0
BBX 7 9 1 -3
BITMAP
1E
66
46
CC
DC
EC
0C
0C
08
ENDCHAR

STARTCHAR r
ENCODING 114
SWIDTH 496 0
DWIDTH 6 0
BBX 6 6 1 0
BITMAP
EC
7C
70
60
C0
C0
ENDCHAR

STARTCHAR s
ENCODING 115
SWIDTH 479 0
DWIDTH 6 0
BBX 6 6 1 0
BITMAP
3C
68
70
38
98
F0
ENDCHAR

STARTCHAR t
ENCODING 116
SWIDTH 375 0
DWIDTH 4 0
BBX 4 7 1 0
BITMAP
60
F0
60
40
C0
C0
E0
ENDCHAR

STARTCHAR u
ENCODING 117
SWIDTH 655 0
DWIDTH 8 0
BBX 7 6 1 0
BITMAP
EE
64
4C
DC
DC
EE
ENDCHAR

STARTCHAR v
ENCODING 118
SWIDTH 584 0
DWIDTH 7 0
BBX 7 6 1 0
BITMAP
E6
66
64
68
30
20
ENDCHAR

STARTCHAR w
ENCODING 119
SWIDTH 822 0
DWIDTH 10 0
BBX 10 6 1 0
BITMAP
C4C0
6C80
6D80
7D00
3600
2400
ENDCHAR

STARTCHAR x
ENCODING 120
SWIDTH 534 0
DWIDTH 6 0
BBX 6 6 0 0
BITMAP
64
3C
38
78
D8
CC
ENDCHAR

STARTCHAR y
ENCODING 121
SWIDTH 586 0
DWIDTH 7 0
BBX 8 9 0 -3
BITMAP
73
31
33
16
1C
18
10
20
C0
ENDCHAR

STARTCHAR z
ENCODING 122
SWIDTH 567 0
DWIDTH 7 0
BBX 7 6 0 0
BITMAP
7E
4C
18
30
64
FC
ENDCHAR

STARTCHAR braceleft
ENCODING 123
SWIDTH 361 0
DWIDTH 4 0
BBX 4 11 1 -2
BITMAP
30
20
20
20
60
80
40
40
C0
C0
C0
ENDCHAR

STARTCHAR bar
ENCODING 124
SWIDTH 253 0
DWIDTH 3 0
BBX 3 11 1 -2
BITMAP
20
20
20
40
40
40
40
40
80
80
80
ENDCHAR

STARTCHAR braceright
ENCODING 125
SWIDTH 361 0
DWIDTH 4 0
BBX 4 11 0 -2
BITMAP
30
10
30
30
20
10
20
60
60
60
C0
ENDCHAR

STARTCHAR asciitilde
ENCODING 126
SWIDTH 636 0
DWIDTH 8 0
BBX 7 2 1 2
BITMAP
72
9C
ENDCHAR

STARTCHAR exclamdown
ENCODING 161
SWIDTH 265 0
DWIDTH 3 0
BBX 3 9 0 -3
BITMAP
20
20
60
40
40
40
C0
C0
C0
ENDCHAR

STARTCHAR cent
ENCODING 162
SWIDTH 636 0
DWIDTH 8 0
BBX 6 9 2 0
BITMAP
10
1C
74
54
D0
D0
D0
78
20
ENDCHAR

STARTCHAR sterling
ENCODING 163
SWIDTH 636 0
DWIDTH 8 0
BBX 7 9 1 0
BITMAP
0E
1A
10
10
7C
7C
20
CC
FC
ENDCHAR

STARTCHAR currency
ENCODING 164
SWIDTH 636 0
DWIDTH 8 0
BBX 9 8 0 0
BITMAP
4080
2100
3E00
2200
2200
2400
7E00
8200
ENDCHAR

STARTCHAR yen
ENCODING 165
SWIDTH 636 0
DWIDTH 8 0
BBX 8 9 1 0
BITMAP
E3
62
74
38
7C
30
F8
30
70
ENDCHAR

STARTCHAR brokenbar
ENCODING 166
SWIDTH 253 0
DWIDTH 3 0
BBX 3 11 1 -2
BITMAP
20
20
20
40
40
00
40
40
80
80
80
ENDCHAR

STARTCHAR section
ENCODING 167
SWIDTH 636 0
DWIDTH 8 0
BBX 7 12 1 -3
BITMAP
1E
22
60
30
5C
4C
64
74
1C
0C
88
F0
ENDCHAR

STARTCHAR dieresis
ENCODING 168
SWIDTH 599 0
DWIDTH 7 0
BBX 4 1 3 8
BITMAP
B0
ENDCHAR

STARTCHAR copyright
ENCODING 169
SWIDTH 853 0
DWIDTH 10 0
BBX 9 9 1 0
BITMAP
1E00
6100
8080
9E80
B280
A080
A080
7D00
1E00
ENDCHAR

STARTCHAR ordfeminine
ENCODING 170
SWIDTH 468 0
DWIDTH 6 0
BBX 5 5 1 4
BITMAP
38
58
D8
F8
D8
ENDCHAR

STARTCHAR guillemotleft
ENCODING 171
SWIDTH 527 0
DWIDTH 6 0
BBX 6 4 1 1
BITMAP
34
78
D8
68
ENDCHAR

STARTCHAR logicalnot
ENCODING 172
SWIDTH 636 0
DWIDTH 8 0
BBX 7 3 1 2
BITMAP
FE
02
02
ENDCHAR

STARTCHAR hyphen
ENCODING 173
SWIDTH 289 0
DWIDTH 3 0
BBX 3 1 1 3
BITMAP
E0
ENDCHAR

STARTCHAR registered
ENCODING 174
SWIDTH 636 0
DWIDTH 8 0
BBX 6 7 2 2
BITMAP
78
84
B4
B4
D4
8C
70
ENDCHAR

STARTCHAR macron
ENCODING 175
SWIDTH 599 0
DWIDTH 7 0
BBX 4 1 3 7
BITMAP
F0
ENDCHAR

STARTCHAR degree
ENCODING 176
SWIDTH 259 0
DWIDTH 3 0
BBX 2 3 2 6
BITMAP
C0
C0
C0
ENDCHAR

STARTCHAR plusminus
ENCODING 177
SWIDTH 636 0
DWIDTH 8 0
BBX 8 6 0 0
BITMAP
08
08
7F
10
00
FE
ENDCHAR

STARTCHAR twosuperior
ENCODING 178
SWIDTH 381 0
DWIDTH 5 0
BBX 4 5 -7 4
BITMAP
70
50
30
40
F0
ENDCHAR

STARTCHAR threesuperior
ENCODING 179
SWIDTH 381 0
DWIDTH 5 0
BBX 4 5 -7 4
BITMAP
70
30
60
30
E0
ENDCHAR

STARTCHAR acute
ENCODING 180
SWIDTH 599 0
DWIDTH 7 0
BBX 3 2 4 7
BITMAP
60
80
ENDCHAR

STARTCHAR mu
ENCODING 181
SWIDTH 687 0
DWIDTH 8 0
BBX 7 8 1 -2
BITMAP
66
66
66
6C
7C
7E
C0
C0
ENDCHAR

STARTCHAR paragraph
ENCODING 182
SWIDTH 636 0
DWIDTH 8 0
BBX 5 11 2 -2
BITMAP
78
E8
E8
E8
30
50
50
50
50
50
50
ENDCHAR

STARTCHAR periodcentered
ENCODING 183
SWIDTH 636 0
DWIDTH 8 0
BBX 2 2 4 3
BITMAP
C0
C0
ENDCHAR

STARTCHAR cedilla
ENCODING 184
SWIDTH 599 0
DWIDTH 7 0
BBX 2 3 2 -3
BITMAP
40
40
C0
ENDCHAR

STARTCHAR onesuperior
ENCODING 185
SWIDTH 381 0
DWIDTH 5 0
BBX 3 5 -7 4
BITMAP
60
20
40
40
E0
ENDCHAR

STARTCHAR ordmasculine
ENCODING 186
SWIDTH 468 0
DWIDTH 6 0
BBX 5 4 1 5
BITMAP
38
C8
D8
F0
ENDCHAR

STARTCHAR guillemotright
ENCODING 187
SWIDTH 527 0
DWIDTH 6 0
BBX 6 4 1 1
BITMAP
48
2C
6C
F0
ENDCHAR

STARTCHAR onequarter
ENCODING 188
SWIDTH 818 0
DWIDTH 10 0
BBX 10 9 3 0
BITMAP
60C0
2100
4200
4480
ED80
1B80
3280
6780
C100
ENDCHAR

STARTCHAR onehalf
ENCODING 189
SWIDTH 818 0
DWIDTH 10 0
BBX 10 9 3 0
BITMAP
60C0
2100
4200
4400
EF80
1A80
3180
6200
C780
ENDCHAR

STARTCHAR threequarters
ENCODING 190
SWIDTH 818 0
DWIDTH 10 0
BBX 10 9 3 0
BITMAP
70C0
3100
6200
3480
ED80
1B80
3280
6780
C100
ENDCHAR

STARTCHAR questiondown
ENCODING 191
SWIDTH 493 0
DWIDTH 6 0
BBX 5 9 0 -3
BITMAP
18
18
18
10
20
C0
C0
C8
78
ENDCHAR

STARTCHAR Agrave
ENCODING 192
SWIDTH 765 0
DWIDTH 9 0
BBX 9 12 0 0
BITMAP
0600
0200
0000
0600
0600
0E00
0B00
1300
3300
3F00
4180
C380
ENDCHAR

STARTCHAR Aacute
ENCODING 193
SWIDTH 765 0
DWIDTH 9 0
BBX 9 12 0 0
BITMAP
0300
0400
0000
0600
0600
0E00
0B00
1300
3300
3F00
4180
C380
ENDCHAR

STARTCHAR Acircumflex
ENCODING 194
SWIDTH 765 0
DWIDTH 9 0
BBX 9 12 0 0
BITMAP
0600
0D00
0000
0600
0600
0E00
0B00
1300
3300
3F00
4180
C380
ENDCHAR

STARTCHAR Atilde
ENCODING 195
SWIDTH 765 0
DWIDTH 9 0
BBX 9 11 0 0
BITMAP
0C80
1300
0600
0600
0E00
0B00
1300
3300
3F00
4180
C380
ENDCHAR

STARTCHAR Adieresis
ENCODING 196
SWIDTH 765 0
DWIDTH 9 0
BBX 9 11 0 0
BITMAP
0D80
0000
0600
0600
0E00
0B00
1300
3300
3F00
4180
C380
ENDCHAR

STARTCHAR Aring
ENCODING 197
SWIDTH 765 0
DWIDTH 9 0
BBX 9 12 0 0
BITMAP
0700
0500
0700
0600
0600
0E00
0B00
1300
3300
3F00
4180
C380
ENDCHAR

STARTCHAR AE
ENCODING 198
SWIDTH 958 0
DWIDTH 11 0
BBX 12 9 0 0
BITMAP
01F0
0390
0500
0D20
1BE0
1320
3F00
6220
CFE0
ENDCHAR

STARTCHAR Ccedilla
ENCODING 199
SWIDTH 740 0
DWIDTH 9 0
BBX 8 12 1 -3
BITMAP
1F
31
61
C0
C0
C0
C0
E2
7C
10
10
30
ENDCHAR

STARTCHAR Egrave
ENCODING 200
SWIDTH 630 0
DWIDTH 8 0
BBX 8 12 0 0
BITMAP
0C
04
00
3F
31
30
32
3C
24
60
62
FE
ENDCHAR

STARTCHAR Eacute
ENCODING 201
SWIDTH 630 0
DWIDTH 8 0
BBX 8 12 0 0
BITMAP
06
08
00
3F
31
30
32
3C
24
60
62
FE
ENDCHAR

STARTCHAR Ecircumflex
ENCODING 202
SWIDTH 630 0
DWIDTH 8 0
BBX 8 12 0 0
BITMAP
0C
1A
00
3F
31
30
32
3C
24
60
62
FE
ENDCHAR

STARTCHAR Edieresis
ENCODING 203
SWIDTH 630 0
DWIDTH 8 0
BBX 8 11 0 0
BITMAP
16
00
3F
31
30
32
3C
24
60
62
FE
ENDCHAR

STARTCHAR Igrave
ENCODING 204
SWIDTH 372 0
DWIDTH 4 0
BBX 5 12 0 0
BITMAP
30
10
00
38
30
30
30
30
20
60
60
F0
ENDCHAR

STARTCHAR Iacute
ENCODING 205
SWIDTH 372 0
DWIDTH 4 0
BBX 6 12 0 0
BITMAP
0C
10
00
38
30
30
30
30
20
60
60
F0
ENDCHAR

STARTCHAR Icircumflex
ENCODING 206
SWIDTH 372 0
DWIDTH 4 0
BBX 6 12 0 0
BITMAP
18
34
00
38
30
30
30
30
20
60
60
F0
ENDCHAR

STARTCHAR Idieresis
ENCODING 207
SWIDTH 372 0
DWIDTH 4 0
BBX 6 11 0 0
BITMAP
2C
00
38
30
30
30
30
20
60
60
F0
ENDCHAR

STARTCHAR Eth
ENCODING 208
SWIDTH 822 0
DWIDTH 10 0
BBX 10 9 0 0
BITMAP
3F80
3180
30C0
30C0
30C0
7C80
2180
6300
FE00
ENDCHAR

STARTCHAR Ntilde
ENCODING 209
SWIDTH 797 0
DWIDTH 10 0
BBX 10 11 0 0
BITMAP
0C80
1300
30C0
3880
3880
2C80
2C80
2700
4700
4300
E100
ENDCHAR

STARTCHAR Ograve
ENCODING 210
SWIDTH 831 0
DWIDTH 10 0
BBX 9 12 1 0
BITMAP
0C00
0400
0000
1F00
3180
6180
4180
C180
C180
C300
C600
7C00
ENDCHAR

STARTCHAR Oacute
ENCODING 211
SWIDTH 831 0
DWIDTH 10 0
BBX 9 12 1 0
BITMAP
0300
0400
0000
1F00
3180
6180
4180
C180
C180
C300
C600
7C00
ENDCHAR

STARTCHAR Ocircumflex
ENCODING 212
SWIDTH 831 0
DWIDTH 10 0
BBX 9 12 1 0
BITMAP
0C00
1A00
0000
1F00
3180
6180
4180
C180
C180
C300
C600
7C00
ENDCHAR

STARTCHAR Otilde
ENCODING 213
SWIDTH 831 0
DWIDTH 10 0
BBX 9 11 1 0
BITMAP
0C80
1300
1F00
3180
6180
4180
C180
C180
C300
C600
7C00
ENDCHAR

STARTCHAR Odieresis
ENCODING 214
SWIDTH 831 0
DWIDTH 10 0
BBX 9 11 1 0
BITMAP
0B00
0000
1F00
3180
6180
4180
C180
C180
C300
C600
7C00
ENDCHAR

STARTCHAR multiply
ENCODING 215
SWIDTH 636 0
DWIDTH 8 0
BBX 8 7 0 0
BITMAP
41
22
14
18
3C
44
82
ENDCHAR

STARTCHAR Oslash
ENCODING 216
SWIDTH 831 0
DWIDTH 10 0
BBX 11 9 2 0
BITMAP
0FE0
18C0
31C0
22C0
64C0
68C0
7180
6300
FE00
ENDCHAR

STARTCHAR Ugrave
ENCODING 217
SWIDTH 775 0
DWIDTH 9 0
BBX 9 12 2 0
BITMAP
1800
0800
0000
F380
6100
6100
4200
C200
C200
C200
C400
7800
ENDCHAR

STARTCHAR Uacute
ENCODING 218
SWIDTH 775 0
DWIDTH 9 0
BBX 9 12 2 0
BITMAP
0600
0800
0000
F380
6100
6100
4200
C200
C200
C200
C400
7800
ENDCHAR

STARTCHAR Ucircumflex
ENCODING 219
SWIDTH 775 0
DWIDTH 9 0
BBX 9 12 2 0
BITMAP
0C00
1A00
0000
F380
6100
6100
4200
C200
C200
C200
C400
7800
ENDCHAR

STARTCHAR Udieresis
ENCODING 220
SWIDTH 775 0
DWIDTH 9 0
BBX 9 11 2 0
BITMAP
1600
0000
F380
6100
6100
4200
C200
C200
C200
C400
7800
ENDCHAR

STARTCHAR Yacute
ENCODING 221
SWIDTH 669 0
DWIDTH 8 0
BBX 8 12 2 0
BITMAP
0C
10
00
E3
62
64
3C
38
30
30
30
F8
ENDCHAR

STARTCHAR Thorn
ENCODING 222
SWIDTH 628 0
DWIDTH 8 0
BBX 8 9 0 0
BITMAP
38
30
3E
33
33
23
66
7C
F0
ENDCHAR

STARTCHAR germandbls
ENCODING 223
SWIDTH 656 0
DWIDTH 8 0
BBX 7 12 1 -3
BITMAP
1E
36
34
28
6C
6E
66
72
5E
C0
C0
C0
ENDCHAR

STARTCHAR agrave
ENCODING 224
SWIDTH 634 0
DWIDTH 8 0
BBX 7 9 1 0
BITMAP
18
08
00
1E
66
44
CC
DC
EE
ENDCHAR

STARTCHAR aacute
ENCODING 225
SWIDTH 634 0
DWIDTH 8 0
BBX 7 9 1 0
BITMAP
06
08
00
1E
66
44
CC
DC
EE
ENDCHAR

STARTCHAR acircumflex
ENCODING 226
SWIDTH 634 0
DWIDTH 8 0
BBX 7 9 1 0
BITMAP
0C
1A
00
1E
66
44
CC
DC
EE
ENDCHAR

STARTCHAR atilde
ENCODING 227
SWIDTH 634 0
DWIDTH 8 0
BBX 7 8 1 0
BITMAP
12
2C
1E
66
44
CC
DC
EE
ENDCHAR

STARTCHAR adieresis
ENCODING 228
SWIDTH 634 0
DWIDTH 8 0
BBX 7 8 1 0
BITMAP
16
00
1E
66
44
CC
DC
EE
ENDCHAR

STARTCHAR aring
ENCODING 229
SWIDTH 634 0
DWIDTH 8 0
BBX 7 9 1 0
BITMAP
0E
0A
0E
1E
66
44
CC
DC
EE
ENDCHAR

STARTCHAR ae
ENCODING 230
SWIDTH 905 0
DWIDTH 11 0
BBX 10 6 1 0
BITMAP
1FC0
6640
44C0
CF80
D440
E780
ENDCHAR

STARTCHAR ccedilla
ENCODING 231
SWIDTH 524 0
DWIDTH 6 0
BBX 6 9 1 -3
BITMAP
3C
64
C4
C0
C0
78
20
20
60
ENDCHAR

STARTCHAR egrave
ENCODING 232
SWIDTH 548 0
DWIDTH 7 0
BBX 6 9 1 0
BITMAP
18
08
00
3C
6C
C8
F0
C4
78
ENDCHAR

STARTCHAR eacute
ENCODING 233
SWIDTH 548 0
DWIDTH 7 0
BBX 6 9 1 0
BITMAP
0C
10
00
3C
6C
C8
F0
C4
78
ENDCHAR

STARTCHAR ecircumflex
ENCODING 234
SWIDTH 548 0
DWIDTH 7 0
BBX 6 9 1 0
BITMAP
18
34
00
3C
6C
C8
F0
C4
78
ENDCHAR

STARTCHAR edieresis
ENCODING 235
SWIDTH 548 0
DWIDTH 7 0
BBX 6 8 1 0
BITMAP
2C
00
3C
6C
C8
F0
C4
78
ENDCHAR

STARTCHAR igrave
ENCODING 236
SWIDTH 319 0
DWIDTH 4 0
BBX 3 9 1 0
BITMAP
60
20
00
E0
60
40
40
C0
E0
ENDCHAR

STARTCHAR iacute
ENCODING 237
SWIDTH 319 0
DWIDTH 4 0
BBX 5 9 1 0
BITMAP
18
20
00
E0
60
40
40
C0
E0
ENDCHAR

STARTCHAR icircumflex
ENCODING 238
SWIDTH 319 0
DWIDTH 4 0
BBX 5 9 1 0
BITMAP
30
68
00
E0
60
40
40
C0
E0
ENDCHAR

STARTCHAR idieresis
ENCODING 239
SWIDTH 319 0
DWIDTH 4 0
BBX 5 8 1 0
BITMAP
D8
00
E0
60
40
40
C0
E0
ENDCHAR

STARTCHAR eth
ENCODING 240
SWIDTH 617 0
DWIDTH 7 0
BBX 7 9 1 0
BITMAP
74
1C
38
3C
66
C6
C4
C8
70
ENDCHAR

STARTCHAR ntilde
ENCODING 241
SWIDTH 656 0
DWIDTH 8 0
BBX 7 8 1 0
BITMAP
12
2C
EE
76
66
64
CC
CE
ENDCHAR

STARTCHAR ograve
ENCODING 242
SWIDTH 599 0
DWIDTH 7 0
BBX 7 9 1 0
BITMAP
18
08
00
3C
66
C6
C4
CC
70
ENDCHAR

STARTCHAR oacute
ENCODING 243
SWIDTH 599 0
DWIDTH 7 0
BBX 7 9 1 0
BITMAP
0C
10
00
3C
66
C6
C4
CC
70
ENDCHAR

STARTCHAR ocircumflex
ENCODING 244
SWIDTH 599 0
DWIDTH 7 0
BBX 7 9 1 0
BITMAP
18
34
00
3C
66
C6
C4
CC
70
ENDCHAR

STARTCHAR otilde
ENCODING 245
SWIDTH 599 0
DWIDTH 7 0
BBX 7 8 1 0
BITMAP
24
58
3C
66
C6
C4
CC
70
ENDCHAR

STARTCHAR odieresis
ENCODING 246
SWIDTH 599 0
DWIDTH 7 0
BBX 7 8 1 0
BITMAP
16
00
3C
66
C6
C4
CC
70
ENDCHAR

STARTCHAR divide
ENCODING 247
SWIDTH 636 0
DWIDTH 8 0
BBX 7 6 1 0
BITMAP
18
00
00
FE
00
30
ENDCHAR

STARTCHAR oslash
ENCODING 248
SWIDTH 599 0
DWIDTH 7 0
BBX 8 6 1 0
BITMAP
3F
66
CE
D4
EC
F0
ENDCHAR

STARTCHAR ugrave
ENCODING 249
SWIDTH 655 0
DWIDTH 8 0
BBX 7 9 1 0
BITMAP
18
08
00
EE
64
4C
DC
DC
EE
ENDCHAR

STARTCHAR uacute
ENCODING 250
SWIDTH 655 0
DWIDTH 8 0
BBX 7 9 1 0
BITMAP
0C
10
00
EE
64
4C
DC
DC
EE
ENDCHAR

STARTCHAR ucircumflex
ENCODING 251
SWIDTH 655 0
DWIDTH 8 0
BBX 7 9 1 0
BITMAP
18
34
00
EE
64
4C
DC
DC
EE
ENDCHAR

STARTCHAR udieresis
ENCODING 252
SWIDTH 655 0
DWIDTH 8 0
BBX 7 8 1 0
BITMAP
16
00
EE
64
4C
DC
DC
EE
ENDCHAR

STARTCHAR yacute
ENCODING 253
SWIDTH 586 0
DWIDTH 7 0
BBX 8 12 0 -3
BITMAP
03
04
00
73
31
33
16
1C
18
10
20
C0
ENDCHAR

STARTCHAR thorn
ENCODING 254
SWIDTH 639 0
DWIDTH 8 0
BBX 7 10 1 -3
BITMAP
70
3E
3A
72
66
44
78
40
C0
C0
ENDCHAR

STARTCHAR ydieresis
ENCODING 255
SWIDTH 586 0
DWIDTH 7 0
BBX 8 11 0 -3
BITMAP
0B
00
73
31
33
16
1C
18
10
20
C0
ENDCHAR
ENDFONT
